<svg width="315" height="371" viewBox="0 0 315 371" fill="none" xmlns="http://www.w3.org/2000/svg">
<path d="M96.7632 92.1212C113.535 92.1212 127.132 71.6891 127.132 46.4849C127.132 21.2806 113.535 0.848511 96.7632 0.848511C79.9911 0.848511 66.3947 21.2806 66.3947 46.4849C66.3947 71.6891 79.9911 92.1212 96.7632 92.1212Z" fill="#75E0E0" fill-opacity="0.68"/>
<path d="M233.421 92.1212C250.193 92.1212 263.789 71.6891 263.789 46.4849C263.789 21.2806 250.193 0.848511 233.421 0.848511C216.649 0.848511 203.053 21.2806 203.053 46.4849C203.053 71.6891 216.649 92.1212 233.421 92.1212Z" fill="#75E0E0" fill-opacity="0.68"/>
<path d="M157.5 76.9091C175.446 76.9091 193.217 80.4503 209.797 87.3307C226.377 94.211 241.442 104.296 254.132 117.009C266.822 129.722 276.888 144.815 283.755 161.425C290.623 178.036 294.158 195.839 294.158 213.818C294.158 231.797 290.623 249.6 283.755 266.211C276.888 282.822 266.822 297.914 254.132 310.628C241.442 323.341 226.377 333.425 209.797 340.306C193.217 347.186 175.446 350.727 157.5 350.727C121.256 350.727 86.4966 336.303 60.8683 310.628C35.24 284.952 20.8421 250.129 20.8421 213.818C20.8421 177.508 35.24 142.684 60.8683 117.009C86.4966 91.3334 121.256 76.9091 157.5 76.9091Z" stroke="url(#paint0_radial_2:15)" stroke-width="40" stroke-linecap="round"/>
<path d="M104.355 92.1212C116.934 92.1212 127.132 76.7971 127.132 57.8939C127.132 38.9907 116.934 23.6667 104.355 23.6667C91.7762 23.6667 81.5789 38.9907 81.5789 57.8939C81.5789 76.7971 91.7762 92.1212 104.355 92.1212Z" fill="black"/>
<path d="M241.013 92.1213C253.592 92.1213 263.789 76.7972 263.789 57.894C263.789 38.9908 253.592 23.6667 241.013 23.6667C228.434 23.6667 218.237 38.9908 218.237 57.894C218.237 76.7972 228.434 92.1213 241.013 92.1213Z" fill="black"/>
<path d="M97 214C104.592 236.818 124.18 259.636 157.737 259.636C191.294 259.636 210.882 236.818 218.474 214" stroke="#E460A7" stroke-width="30" stroke-linecap="round"/>
<path d="M157.5 92.1212C174.272 92.1212 187.868 81.9052 187.868 69.303C187.868 56.7009 174.272 46.4849 157.5 46.4849C140.728 46.4849 127.132 56.7009 127.132 69.303C127.132 81.9052 140.728 92.1212 157.5 92.1212Z" fill="#6CC1FF"/>
<defs>
<radialGradient id="paint0_radial_2:15" cx="0" cy="0" r="1" gradientUnits="userSpaceOnUse" gradientTransform="translate(66.3948 31.2727) rotate(74.0824) scale(332.192 331.674)">
<stop stop-color="#85C8C8"/>
<stop offset="1" stop-color="#75E0E0" stop-opacity="0.68"/>
</radialGradient>
</defs>
</svg>
