<svg width="220" height="212" viewBox="0 0 220 212" fill="none" xmlns="http://www.w3.org/2000/svg">
<path fill-rule="evenodd" clip-rule="evenodd" d="M19.4642 50.5174C34.9884 35.506 61.5003 43.7432 81.0481 34.5999C98.1958 26.5792 106.876 3.74391 125.575 0.884954C144.444 -1.99994 164.249 7.0997 178.574 19.6892C192.11 31.586 195.657 50.6024 201.545 67.6544C206.505 82.0159 207.967 96.5903 210.315 111.609C213.097 129.412 224.06 147.919 216.661 164.369C209.293 180.75 189.878 188.131 173.071 194.414C157.846 200.107 141.424 196.176 125.347 198.509C106.073 201.306 87.2202 216.279 68.9736 209.522C50.8835 202.823 44.9649 180.521 33.9586 164.668C21.9354 147.352 3.81783 132.789 1.15912 111.85C-1.57268 90.3359 3.8617 65.6046 19.4642 50.5174Z" fill="#545AFF"/>
</svg>
