<svg width="80" height="80" viewBox="0 0 80 80" fill="none" xmlns="http://www.w3.org/2000/svg">
<path d="M51.9834 14.0155H28.0167C20.2834 14.0155 14.0156 20.2844 14.0156 28.0166V51.9833C14.0156 59.7166 20.2845 65.9844 28.0178 65.9844H51.9823C59.7156 65.9844 65.9845 59.7155 65.9845 51.9822V28.0166C65.9845 20.2833 59.7156 14.0155 51.9823 14.0155H51.9834Z" fill="white"/>
<path d="M51.9834 14.0155H28.0167C20.2834 14.0155 14.0156 20.2844 14.0156 28.0166V51.9833C14.0156 59.7166 20.2845 65.9844 28.0178 65.9844H51.9823C59.7156 65.9844 65.9845 59.7155 65.9845 51.9822V28.0166C65.9845 20.2833 59.7156 14.0155 51.9823 14.0155H51.9834Z" stroke="black" stroke-width="2" stroke-miterlimit="10"/>
<path d="M40 52.5445C46.9281 52.5445 52.5445 46.9281 52.5445 40C52.5445 33.0719 46.9281 27.4556 40 27.4556C33.0719 27.4556 27.4556 33.0719 27.4556 40C27.4556 46.9281 33.0719 52.5445 40 52.5445Z" stroke="black" stroke-width="2" stroke-miterlimit="10"/>
<path d="M55.2322 27.4555C56.7166 27.4555 57.92 26.2522 57.92 24.7677C57.92 23.2833 56.7166 22.08 55.2322 22.08C53.7478 22.08 52.5444 23.2833 52.5444 24.7677C52.5444 26.2522 53.7478 27.4555 55.2322 27.4555Z" fill="black"/>
</svg>
