<svg width="100" height="100" viewBox="0 0 100 100" fill="none" xmlns="http://www.w3.org/2000/svg">
<path d="M58.3333 50.0001L43.75 58.3334V41.6667L58.3333 50.0001Z" fill="black" stroke="black" stroke-width="1.5" stroke-linecap="round" stroke-linejoin="round"/>
<path d="M8.3335 52.9459V47.0501C8.3335 34.9876 8.3335 28.9542 12.1043 25.0751C15.8793 21.1917 21.821 21.0251 33.7002 20.6876C39.3252 20.5292 45.0752 20.4167 50.0002 20.4167C54.921 20.4167 60.671 20.5292 66.3002 20.6876C78.1793 21.0251 84.121 21.1917 87.8918 25.0751C91.6668 28.9542 91.6668 34.9917 91.6668 47.0501V52.9459C91.6668 65.0126 91.6668 71.0418 87.896 74.9251C84.121 78.8043 78.1835 78.9751 66.3002 79.3084C60.6752 79.4709 54.9252 79.5834 50.0002 79.5834C45.0793 79.5834 39.3293 79.4709 33.7002 79.3084C21.821 78.9751 15.8793 78.8084 12.1043 74.9251C8.3335 71.0418 8.3335 65.0084 8.3335 52.9501V52.9459Z" stroke="black" stroke-width="1.5"/>
</svg>
